# xmcd CD database file
#
# Track frame offsets:
#	150
#	14437
#	30072
#	42792
#
# Disc length: 713 seconds
#
# Revision: 0
# Processed by: cddbd v1.4PL0 Copyright (c) Steve Scherf et al.
# Submitted via: CDex 1.50beta8
#
DISCID=1e02c704
DTITLE=As Meninas do Rodeio - As Meninas do Rodeio
DYEAR=2002
DGENRE=Country
TTITLE0=Namoro ou amizade
TTITLE1=As meninas do rodeio
TTITLE2=Cowboy de todo dia
TTITLE3=Cara de pau
EXTD=YEAR: 2002
EXTT0=
EXTT1=
EXTT2=
EXTT3=
PLAYORDER=
